<svg xmlns="http://www.w3.org/2000/svg" width="14" height="14" viewBox="0 0 14 14"><g transform="translate(-1174.5 -19.5)"><g transform="translate(1174.5 19.5)"><path d="M7.289,16.5H4.342A1.844,1.844,0,0,1,2.5,14.658V4.342A1.844,1.844,0,0,1,4.342,2.5H7.289a.368.368,0,0,1,0,.737H4.342A1.107,1.107,0,0,0,3.237,4.342V14.658a1.107,1.107,0,0,0,1.105,1.105H7.289a.368.368,0,1,1,0,.737Z" transform="translate(-2.5 -2.5)" fill="#333"/><path d="M15.868,14.605a.368.368,0,0,1-.261-.629l3.424-3.424L15.608,7.129a.368.368,0,0,1,.521-.521l3.684,3.684a.368.368,0,0,1,0,.521L16.129,14.5A.367.367,0,0,1,15.868,14.605Z" transform="translate(-5.921 -3.553)" fill="#333"/><path d="M8.711.237H-.132A.368.368,0,0,1-.5-.132.368.368,0,0,1-.132-.5H8.711a.368.368,0,0,1,.368.368A.368.368,0,0,1,8.711.237Z" transform="translate(4.921 7.132)" fill="#333"/></g></g></svg>