<svg xmlns="http://www.w3.org/2000/svg" width="13.934" height="10.4"><path d="M4.078 9.425A8.721 8.721 0 0 1 1.973 7.75 11.251 11.251 0 0 1 .235 5.328a.292.292 0 0 1 0-.265 11.3 11.3 0 0 1 1.738-2.415A8.627 8.627 0 0 1 4.078.97 5.949 5.949 0 0 1 6.966.2a5.959 5.959 0 0 1 2.891.77 8.627 8.627 0 0 1 2.1 1.678 11.443 11.443 0 0 1 1.746 2.415.3.3 0 0 1 0 .265 11.389 11.389 0 0 1-1.742 2.422 8.721 8.721 0 0 1-2.1 1.675 5.941 5.941 0 0 1-2.895.775 5.931 5.931 0 0 1-2.888-.775Zm.283-7.945a8.27 8.27 0 0 0-1.958 1.563A11.564 11.564 0 0 0 .828 5.2a11.563 11.563 0 0 0 1.584 2.159 7.974 7.974 0 0 0 1.956 1.558 5.428 5.428 0 0 0 2.6.688 5.392 5.392 0 0 0 2.605-.694 8.1 8.1 0 0 0 1.957-1.562A11.337 11.337 0 0 0 13.103 5.2a10.893 10.893 0 0 0-1.585-2.161A7.932 7.932 0 0 0 9.564 1.48a5.347 5.347 0 0 0-2.6-.694 5.386 5.386 0 0 0-2.603.694Zm.542 3.72a2.059 2.059 0 1 1 2.063 2.057A2.061 2.061 0 0 1 4.903 5.2Zm.588 0a1.471 1.471 0 1 0 1.475-1.474A1.469 1.469 0 0 0 5.495 5.2Z" stroke="#000" stroke-linecap="round" stroke-width=".4"/></svg>